# xmcd
#
# Track frame offsets:
#	150
#	10395
#	24235
#	33515
#	43907
#	52795
#	68552
#	82702
#	98077
#	110292
#
# Disc length: 1652 seconds
#
# Revision: 2
# Processed by: cddbd v1.4PL0 Copyright (c) Steve Scherf et al.
# Submitted via: EasyCDDAExtractor 5.0.3.2
#
DISCID=6906720a
DTITLE=Various Artist - Country Christmas Favorites, Vol. 1
DYEAR=1900
DGENRE=Country
TTITLE0=Various Artist - Deck the Halls
TTITLE1=various country artists - The First Noel
TTITLE2=various country artists - We Wish You A Merry Crhistmas
TTITLE3=various country artists - I Wonder As I Wander
TTITLE4=various country artists - The Holly And The Ivy
TTITLE5=various country artists - What Child Is This
TTITLE6=various country artists - O Come All Ye Faithful
TTITLE7=various country artists - Silent Night
TTITLE8=various country artists - Jingle Bells
TTITLE9=various country artists - O Little Town Of Bethlehem
EXTD=
EXTT0=
EXTT1=
EXTT2=
EXTT3=
EXTT4=
EXTT5=
EXTT6=
EXTT7=
EXTT8=
EXTT9=
PLAYORDER=
